<?xml version="1.0" encoding="utf-8"?>
<!-- Generator: Adobe Illustrator 24.3.0, SVG Export Plug-In . SVG Version: 6.00 Build 0)  -->
<svg version="1.1" id="Capa_1" xmlns="http://www.w3.org/2000/svg" xmlns:xlink="http://www.w3.org/1999/xlink" x="0px" y="0px"
	 viewBox="0 0 141.73 135.49" style="enable-background:new 0 0 141.73 135.49;" xml:space="preserve">
<style type="text/css">
	.st0{fill:#FFFFFF;}
</style>
<g>
	<path class="st0" d="M77.99,77.69c-0.61,3.51-1.97,6.77-6.44,6.7c-4.85-0.07-5.62-3.72-6.29-6.69c-0.71,2.93-0.5,4.55,1,6.68
		C70.42,90.31,80.89,85.53,77.99,77.69z"/>
	<path class="st0" d="M61.32,82.13c0.91,5.12,5.96,9.55,12.06,8.47c5.11-0.9,9.65-5.72,8.59-12.05c-0.3-1.83-1.13-3.57-2.34-5.01
		c0,0,0,0,0,0c-2.22-2.66-5.74-4.31-9.78-3.58c-2.57,0.47-4.98,1.91-6.61,4.03c0.83-0.03,1.67-0.06,2.5-0.09
		c-0.83,0.03-1.67,0.06-2.5,0.09C61.6,76.11,60.75,78.93,61.32,82.13z M67.22,73.84C67.22,73.84,67.22,73.84,67.22,73.84
		c0.83-0.56,1.75-0.96,2.69-1.18c2.25-0.51,4.26-0.05,5.85,0.96c0.74-0.02,1.47-0.03,2.21-0.05c-0.74,0.02-1.48,0.03-2.21,0.05
		c1.79,1.14,3.05,2.97,3.49,4.94c2.27,10.14-12.94,13.36-15.23,3.54C63.17,78.47,64.8,75.48,67.22,73.84z"/>
	<path class="st0" d="M114.33,72.36l20.32-18.94l-41.51-5.08l0.31,7.68l-3.54-8.08L70.87,7.08L53.58,44.19l11,2.2l-12.75,1.55
		L7.09,53.42l24.84,23.15l5.19,4.85l3.95-6l0.96-1.46l-0.27,1.39l-1.7,8.81l-8.61,44.24l36.23-20.1l-4.99-6.56l8.18,4.8l39.42,21.86
		l-7.98-40.97l-7.59,3.1l6.96-6.37L114.33,72.36z M66.18,56.88c3.56-1.02,7.51-1.02,11.09,0.05c1.77,0.53,2.95,1.29,4.39,1.8
		l-1.85,2.53c-0.6,0.96-1.18,1.75-1.87,2.45c-2.55,2.59-9.57,2.96-12.7-0.1l-3.66-4.89C63.03,58.24,64.35,57.4,66.18,56.88z
		 M90.36,83.12c-2.55,6.61-9.23,12.99-18.41,12.99c-11.36,0-20.31-8.96-20.31-19.48V75.6c0-0.35,0.01-0.7,0.04-1.05
		c0.4-6.15,4.22-11.87,7.52-13.99c2.13,1.08,2.12,3.28,4.69,5.43c3.87,3.24,11.43,3.29,15.5-0.01c2.35-1.92,2.73-4.54,4.69-5.41
		c1.31,0.69,2.98,2.75,3.95,4.09c1.02,1.41,1.99,3.32,2.62,5.21c0.35,1.08,0.61,2.23,0.77,3.4C91.87,76.59,91.51,80.13,90.36,83.12z
		"/>
</g>
</svg>
